#N canvas 190 22 808 737 10;
#X obj 25 -121 bng 15 250 50 0 empty empty empty 17 7 0 10 -262144
-1 -1;
#X obj 697 -108 bng 15 250 50 0 empty empty empty 17 7 0 10 -262144
-1 -1;
#X obj 102 362 cnv 15 646 131 empty empty Wind_Maker 6 12 1 14 -245500
-1 0;
#X obj 291 -4 osc~ 50;
#X obj 352 -3 osc~ 100;
#X obj 414 -3 osc~ 133;
#X msg 330 -26 3.12245;
#X obj 291 17 *~ 0.3333;
#X obj 352 18 *~ 0.3333;
#X obj 414 18 *~ 0.3333;
#X obj 375 337 dac~;
#X floatatom 403 -25 5 0 0 0 - - -;
#X obj 628 28 noise~;
#X obj 628 77 *~ 0.1;
#X obj 337 442 knob 32 32 0 8 0 0 lpvol empty wave 0 -8 128 8 -262144
-262144 -1 504 1;
#X obj 628 52 lop~ 120;
#X obj 108 317 random 210;
#X obj 108 339 line;
#X obj 260 373 tgl 15 0 empty empty wavy 17 7 0 10 -204800 -1 -1 0
1;
#X obj 689 225 noise~;
#X obj 689 317 *~ 0.1;
#X obj 379 441 knob 32 32 0 3 0 0 bandvol empty band 0 -8 128 8 -262144
-262144 -1 1550 1;
#X obj 696 245 r slide1;
#X obj 111 444 hsl 128 15 0 440 0 0 slide1 empty band_pass_CF -2 -8
0 10 -262144 -1 -1 5773 1;
#X obj 111 475 hsl 128 15 1 6 0 0 slide2 empty band_pass_Q -2 -8 0
10 -262144 -1 -1 0 1;
#X floatatom 714 295 5 0 0 0 - - -;
#X floatatom 748 295 5 0 0 0 - - -;
#X obj 71 -3 osc~ 50;
#X obj 121 -3 osc~ 100;
#X obj 176 -4 osc~ 133;
#X obj 59 19 *~ 0.3333;
#X obj 121 19 *~ 0.3333;
#X obj 183 19 *~ 0.3333;
#X floatatom 176 -30 5 0 0 0 - - -;
#X obj 121 125 *~ 0.1;
#X floatatom 84 -27 5 0 0 0 - - -;
#X floatatom 121 -27 5 0 0 0 - - -;
#X obj 254 442 knob 32 32 0 1 0 0 windvol empty wind 0 -8 128 8 -262144
-262144 -1 620 1;
#N canvas 424 332 450 300 randomgen 0;
#X msg 114 129 199;
#X msg 141 129 300;
#X msg 170 129 220;
#X msg 195 129 169;
#X obj 132 63 random 7;
#X obj 132 88 select 0 1 2 3 4 5 6 7;
#X obj 113 159 bng 15 250 50 0 empty empty empty 17 7 0 10 -262144
-1 -1;
#X obj 123 169 bng 15 250 50 0 empty empty empty 17 7 0 10 -262144
-1 -1;
#X obj 133 179 bng 15 250 50 0 empty empty empty 17 7 0 10 -262144
-1 -1;
#X obj 143 189 bng 15 250 50 0 empty empty empty 17 7 0 10 -262144
-1 -1;
#X obj 153 199 bng 15 250 50 0 empty empty empty 17 7 0 10 -262144
-1 -1;
#X obj 163 209 bng 15 250 50 0 empty empty empty 17 7 0 10 -262144
-1 -1;
#X obj 173 219 bng 15 250 50 0 empty empty empty 17 7 0 10 -262144
-1 -1;
#X obj 132 12 inlet;
#X msg 222 129 190;
#X msg 249 129 230;
#X msg 275 129 204;
#X msg 302 129 189;
#X obj 275 199 outlet;
#X obj 183 12 inlet;
#X obj 132 37 metro 12;
#X connect 0 0 6 0;
#X connect 0 0 18 0;
#X connect 1 0 7 0;
#X connect 1 0 18 0;
#X connect 2 0 8 0;
#X connect 2 0 18 0;
#X connect 3 0 18 0;
#X connect 4 0 5 0;
#X connect 5 0 0 0;
#X connect 5 1 1 0;
#X connect 5 2 2 0;
#X connect 5 3 3 0;
#X connect 5 4 14 0;
#X connect 5 5 15 0;
#X connect 5 6 16 0;
#X connect 5 7 17 0;
#X connect 13 0 20 0;
#X connect 14 0 9 0;
#X connect 14 0 18 0;
#X connect 15 0 10 0;
#X connect 15 0 18 0;
#X connect 16 0 11 0;
#X connect 16 0 18 0;
#X connect 17 0 12 0;
#X connect 17 0 18 0;
#X connect 19 0 20 1;
#X connect 20 0 4 0;
#X restore 121 -75 pd randomgen;
#X obj 121 -94 tgl 15 0 empty empty empty 17 7 0 10 -262144 -1 -1 1
1;
#X obj 121 -50 + 50;
#X obj 671 -124 bng 15 250 50 0 empty empty empty 17 7 0 10 -262144
-1 -1;
#X obj 1343 -111 bng 15 250 50 0 empty empty empty 17 7 0 10 -262144
-1 -1;
#X obj 84 -50 + 100;
#X obj 121 217 rev3~;
#X obj 689 295 bp~;
#X obj 750 245 r slide2;
#X floatatom 131 186 0 0 120 0 - - -;
#X text 3 142 level \, dB;
#X floatatom 155 186 0 0 100 0 - - -;
#X text 3 156 liveness \, 0-100;
#X floatatom 180 187 4 0 5000 0 - - -;
#X floatatom 209 187 0 0 100 0 - - -;
#X text 2 182 HF damping \, percent;
#X obj 353 165 *~ 0.1;
#X obj 296 442 knob 32 32 0 0.7 0 0 bassvol empty bass 0 -8 128 8 -262144
-262144 -1 443 1;
#X obj 129 144 loadbang;
#X text 2 168 crossover frequency;
#X msg 129 164 110;
#X msg 184 164 220;
#X msg 157 164 67;
#X msg 211 165 44;
#X obj 737 223 loadbang;
#X msg 711 269 24.2;
#X msg 745 269 3;
#X obj 108 291 metro 440;
#X obj 65 -94 loadbang;
#X floatatom 190 -96 5 0 0 0 - - -;
#X floatatom 182 -51 5 0 0 0 - - -;
#X obj 120 101 lop~ 330;
#X floatatom 165 77 5 0 0 0 - - -;
#X msg 439 -72 86 700;
#X obj 439 -26 line;
#X msg 488 -59 100 2000;
#X obj 439 -93 r note1;
#X obj 602 -55 r note4;
#X obj 548 -68 r note3;
#X obj 489 -80 r note2;
#X msg 548 -47 25 6000;
#X msg 602 -35 50 400;
#X obj 184 510 loadbang;
#X obj 111 393 hsl 376 34 0 210 0 0 lpfilter empty LowPass_filter_cut
-2 -8 1 10 -262144 -1 -1 0 1;
#X obj 236 -94 r windblast;
#X obj 206 373 tgl 15 0 empty empty windy 17 7 0 10 -204800 -1 -1 0
1;
#X obj 14 537 line;
#X obj 14 489 metro 22;
#X obj 140 339 random 2000;
#X obj 223 338 + 700;
#X obj 3 396 line;
#X obj 13 305 random 400;
#X obj 21 330 + 40;
#X obj 223 -51 r windpitch;
#X obj 11 349 random 2000;
#X obj 3 282 metro 1000;
#X obj 24 371 + 1000;
#X obj 254 481 nbx 3 11 -1e+37 1e+37 0 0 empty empty empty 0 -8 0 10
-262144 -1 -1 0.2 256;
#X obj 295 481 nbx 3 11 -1e+37 1e+37 0 0 empty empty empty 0 -8 0 10
-262144 -1 -1 0.100032 256;
#X obj 338 481 nbx 3 11 -1e+37 1e+37 0 0 empty empty empty 0 -8 0 10
-262144 -1 -1 1.30065 256;
#X obj 380 481 nbx 3 11 -1e+37 1e+37 0 0 empty empty empty 0 -8 0 10
-262144 -1 -1 1.5 256;
#X obj 649 -39 r note5;
#X obj 5 434 loadbang;
#X msg 62 435 200;
#X obj 46 558 + 780;
#X obj 121 53 throw~ swind;
#X obj 352 47 throw~ sbass;
#X obj 353 68 catch~ sbass2;
#X obj 79 76 catch~ swind2;
#X obj 630 217 rev3~;
#X floatatom 641 183 0 0 120 0 - - -;
#X floatatom 665 183 0 0 100 0 - - -;
#X floatatom 690 184 4 0 5000 0 - - -;
#X floatatom 719 184 0 0 100 0 - - -;
#X obj 639 141 loadbang;
#X msg 639 161 110;
#X msg 694 161 220;
#X msg 667 161 67;
#X msg 721 162 44;
#X obj 628 97 lop~ 330;
#X obj 219 111 *~ 0.3;
#X obj 631 122 *~ 0.5;
#X obj 219 67 noise~;
#X floatatom 102 508 5 0 0 0 - - -;
#X obj 46 537 random 19;
#X obj 14 515 random 6;
#X msg 254 510 0.2;
#X msg 293 509 0.1;
#X msg 337 509 1.3;
#X msg 384 508 1.5;
#X obj 613 364 cnv 15 133 128 empty empty Bass 0 8 0 14 -191407 -1
0;
#X obj 624 441 bng 15 250 50 0 note1 empty empty 17 7 0 10 -262144
-1 -1;
#X obj 640 441 bng 15 250 50 0 note2 empty empty 17 7 0 10 -262144
-1 -1;
#X obj 656 441 bng 15 250 50 0 note3 empty empty 17 7 0 10 -262144
-1 -1;
#X obj 672 441 bng 15 250 50 0 note4 empty empty 17 7 0 10 -262144
-1 -1;
#N canvas 353 212 545 307 envelope 0;
#X obj 101 185 *~;
#X obj 101 213 outlet~;
#X obj 101 154 inlet~;
#X obj 270 273 line~ 0 50;
#X msg 179 186 1 1000;
#X msg 226 188 0 5000;
#X obj 135 104 bng 30 250 50 0 empty empty empty 17 7 0 10 -262144
-225281 -1;
#X obj 103 104 bng 30 250 50 0 empty empty empty 17 7 0 10 -262144
-4034 -1;
#X obj 168 104 bng 30 250 50 0 empty empty empty 17 7 0 10 -262144
-1 -1;
#X obj 103 75 loadbang;
#X msg 271 187 2 2000;
#X text 224 144 comment;
#X connect 0 0 1 0;
#X connect 2 0 0 0;
#X connect 3 0 0 1;
#X connect 4 0 3 0;
#X connect 5 0 3 0;
#X connect 6 0 5 0;
#X connect 7 0 4 0;
#X connect 8 0 10 0;
#X connect 9 0 7 0;
#X connect 10 0 3 0;
#X coords 0 -1 1 1 100 38 1 100 100;
#X restore 623 396 pd envelope;
#X text 707 439 sweep;
#X obj 688 441 bng 15 250 50 0 note5 empty empty 17 7 0 10 -262144
-1 -1;
#X obj 618 342 catch~ sbass;
#X obj 621 507 throw~ sbass2;
#X text 624 377 mild |none |boost;
#X obj 499 364 cnv 15 111 128 empty empty Wind 0 8 0 14 -212212 -1
0;
#X obj 508 439 hsl 58 15 1 100 0 0 windblast empty empty -2 -8 0 10
-262144 -1 -1 0 1;
#N canvas 353 212 545 307 envelope 0;
#X obj 120 271 *~;
#X obj 122 303 outlet~;
#X obj 123 160 inlet~;
#X obj 241 280 line~ 0 50;
#X msg 157 225 1 1000;
#X msg 204 218 0 5000;
#X obj 135 104 bng 30 250 50 0 empty empty empty 17 7 0 10 -262144
-225281 -1;
#X obj 103 104 bng 30 250 50 0 empty empty empty 17 7 0 10 -262144
-4034 -1;
#X obj 168 104 bng 30 250 50 0 empty empty empty 17 7 0 10 -262144
-203904 -1;
#X obj 103 75 loadbang;
#X msg 251 220 2 2000;
#X text 249 135 comment;
#X connect 0 0 1 0;
#X connect 2 0 0 0;
#X connect 3 0 0 1;
#X connect 4 0 3 0;
#X connect 5 0 3 0;
#X connect 6 0 5 0;
#X connect 7 0 4 0;
#X connect 8 0 10 0;
#X connect 9 0 7 0;
#X connect 10 0 3 0;
#X coords 0 -1 1 1 100 38 1 100 100;
#X restore 504 396 pd envelope;
#X obj 508 457 hsl 58 15 -50 500 0 0 windpitch tone empty -2 -8 0 10
-262144 -1 -1 0 1;
#X text 570 455 tone;
#X obj 487 337 catch~ swind;
#X obj 509 503 throw~ swind2;
#X obj 508 475 hsl 58 15 0 0.01 0 0 high empty empty -2 -8 0 10 -262144
-1 -1 5700 1;
#X text 571 470 high;
#X text 570 437 hurl;
#X obj 495 529 loadbang;
#X msg 555 530 0.02;
#X text 504 378 mild |None |burst;
#X obj 44 399 s tone;
#X obj 265 111 r high;
#X text 435 495 comment;
#X obj 353 141 +~;
#X text 647 288 comment;
#X obj 675 30 r lpfilter;
#X floatatom 687 53 5 0 0 0 - - -;
#X obj 681 76 r lpvol;
#X obj 396 165 r bassvol;
#X obj 169 125 r windvol;
#X obj 736 317 r bandvol;
#X obj 368 114 *~ 0.1;
#X obj 413 113 r wobble;
#X obj 627 461 hsl 73 11 0.001 0.13 0 0 wobble empty empty -2 -8 0
10 -262144 -1 -1 0 1;
#X text 707 459 wobble;
#X obj 368 91 osc~ 70;
#X floatatom 421 91 5 0 0 0 - - -;
#X msg 647 -15 70 1000;
#X text 699 419 comment;
#X text 508 304;
#X connect 0 0 1 0;
#X connect 3 0 7 0;
#X connect 4 0 8 0;
#X connect 5 0 9 0;
#X connect 6 0 3 1;
#X connect 7 0 104 0;
#X connect 8 0 104 0;
#X connect 9 0 104 0;
#X connect 11 0 5 0;
#X connect 12 0 15 0;
#X connect 13 0 117 0;
#X connect 14 0 97 0;
#X connect 15 0 13 0;
#X connect 16 0 17 0;
#X connect 17 0 81 0;
#X connect 18 0 65 0;
#X connect 19 0 45 0;
#X connect 20 0 10 0;
#X connect 20 0 10 1;
#X connect 21 0 98 0;
#X connect 22 0 25 0;
#X connect 22 0 45 1;
#X connect 27 0 30 0;
#X connect 28 0 31 0;
#X connect 29 0 32 0;
#X connect 30 0 103 0;
#X connect 31 0 103 0;
#X connect 32 0 103 0;
#X connect 33 0 29 0;
#X connect 34 0 44 0;
#X connect 35 0 27 0;
#X connect 36 0 28 0;
#X connect 37 0 95 0;
#X connect 38 0 33 0;
#X connect 38 0 40 0;
#X connect 38 0 43 0;
#X connect 39 0 38 0;
#X connect 40 0 36 0;
#X connect 41 0 42 0;
#X connect 43 0 35 0;
#X connect 44 3 10 1;
#X connect 44 3 10 0;
#X connect 45 0 20 0;
#X connect 46 0 26 0;
#X connect 46 0 45 2;
#X connect 47 0 44 2;
#X connect 49 0 44 3;
#X connect 51 0 44 4;
#X connect 52 0 44 4;
#X connect 54 0 10 0;
#X connect 54 0 10 1;
#X connect 55 0 96 0;
#X connect 56 0 58 0;
#X connect 56 0 60 0;
#X connect 56 0 59 0;
#X connect 56 0 61 0;
#X connect 58 0 47 0;
#X connect 59 0 51 0;
#X connect 60 0 49 0;
#X connect 61 0 52 0;
#X connect 62 0 63 0;
#X connect 62 0 64 0;
#X connect 63 0 45 1;
#X connect 63 0 25 0;
#X connect 64 0 45 2;
#X connect 64 0 26 0;
#X connect 65 0 16 0;
#X connect 65 0 86 0;
#X connect 66 0 39 0;
#X connect 67 0 38 1;
#X connect 68 0 40 1;
#X connect 69 0 34 0;
#X connect 70 0 69 1;
#X connect 71 0 72 0;
#X connect 72 0 5 0;
#X connect 72 0 167 0;
#X connect 73 0 72 0;
#X connect 74 0 71 0;
#X connect 75 0 79 0;
#X connect 76 0 78 0;
#X connect 77 0 73 0;
#X connect 78 0 72 0;
#X connect 79 0 72 0;
#X connect 80 0 124 0;
#X connect 80 0 125 0;
#X connect 80 0 126 0;
#X connect 80 0 127 0;
#X connect 82 0 67 0;
#X connect 83 0 85 0;
#X connect 83 0 93 0;
#X connect 84 0 24 0;
#X connect 84 0 121 0;
#X connect 85 0 122 0;
#X connect 85 0 123 0;
#X connect 86 0 87 0;
#X connect 87 0 17 1;
#X connect 88 0 23 0;
#X connect 88 0 152 0;
#X connect 89 0 90 0;
#X connect 90 0 88 0;
#X connect 91 0 68 0;
#X connect 92 0 94 0;
#X connect 93 0 89 0;
#X connect 93 0 92 0;
#X connect 94 0 88 1;
#X connect 99 0 169 0;
#X connect 100 0 101 0;
#X connect 101 0 23 0;
#X connect 102 0 84 1;
#X connect 105 0 155 0;
#X connect 106 0 69 0;
#X connect 107 3 10 1;
#X connect 107 3 10 0;
#X connect 108 0 107 2;
#X connect 109 0 107 3;
#X connect 110 0 107 4;
#X connect 111 0 107 4;
#X connect 112 0 113 0;
#X connect 112 0 115 0;
#X connect 112 0 114 0;
#X connect 112 0 116 0;
#X connect 113 0 108 0;
#X connect 114 0 110 0;
#X connect 115 0 109 0;
#X connect 116 0 111 0;
#X connect 117 0 119 0;
#X connect 118 0 34 0;
#X connect 119 0 107 0;
#X connect 120 0 118 0;
#X connect 122 0 102 0;
#X connect 123 0 84 0;
#X connect 124 0 37 0;
#X connect 125 0 55 0;
#X connect 126 0 14 0;
#X connect 127 0 21 0;
#X connect 133 0 137 0;
#X connect 136 0 133 0;
#X connect 141 0 145 0;
#X connect 144 0 141 0;
#X connect 149 0 150 0;
#X connect 150 0 146 0;
#X connect 153 0 118 1;
#X connect 155 0 54 0;
#X connect 157 0 15 1;
#X connect 157 0 158 0;
#X connect 159 0 13 1;
#X connect 160 0 54 1;
#X connect 161 0 34 1;
#X connect 162 0 20 1;
#X connect 163 0 155 1;
#X connect 164 0 163 1;
#X connect 167 0 163 0;
#X connect 168 0 167 0;
#X connect 169 0 72 0;
#X coords 0 -1 1 1 650 135 1 100 360;
