#N canvas 1572 179 1451 634 10;
#X obj 291 221 osc~;
#X obj 318 376 dac~;
#X floatatom 289 161 5 0 0 0 - - -, f 5;
#X obj 98 49 print msg;
#X obj 110 190 phasor~;
#X obj 376 324 *~;
#X obj 543 297 vsl 15 128 0 1 0 0 empty empty empty 0 -9 0 10 -262144
-1 -1 4300 1;
#X floatatom 129 144 5 0 0 0 - - -, f 5;
#X obj 256 95 route;
#X obj 33 100 unpack 0 0 0;
#X obj 12 168 print 1;
#X obj 13 233 print 2;
#X obj 42 298 print 3;
#X obj 649 178 osc~;
#X floatatom 647 118 5 0 0 0 - - -, f 5;
#X obj 456 6 print msg;
#X obj 468 147 phasor~;
#X floatatom 487 102 5 0 0 0 - - -, f 5;
#X obj 614 52 route;
#X obj 391 57 unpack 0 0 0;
#X obj 370 126 print 1;
#X obj 371 190 print 2;
#X obj 400 256 print 3;
#X obj 1009 406 vsl 15 128 0 1 0 0 empty empty empty 0 -9 0 10 -262144
-1 -1 0 1;
#X obj 1127 295 osc~;
#X floatatom 1137 243 5 0 0 0 - - -, f 5;
#X obj 946 131 print msg;
#X obj 958 272 phasor~;
#X floatatom 995 219 5 0 0 0 - - -, f 5;
#X obj 1104 177 route;
#X obj 881 182 unpack 0 0 0;
#X obj 860 251 print 1;
#X obj 861 315 print 2;
#X obj 890 381 print 3;
#X obj 615 29 netreceive 3001 1;
#X obj 1106 154 netreceive 3002 1;
#X obj 257 72 netreceive 3003 1;
#X obj 1141 396 * -1.5;
#X obj 1120 265 * -100;
#X connect 2 0 0 0;
#X connect 5 0 1 0;
#X connect 5 0 1 1;
#X connect 6 0 5 1;
#X connect 7 0 4 0;
#X connect 8 0 3 0;
#X connect 8 0 9 0;
#X connect 9 0 10 0;
#X connect 9 0 7 0;
#X connect 9 1 11 0;
#X connect 9 1 2 0;
#X connect 9 2 12 0;
#X connect 13 0 5 0;
#X connect 14 0 13 0;
#X connect 16 0 5 0;
#X connect 17 0 16 0;
#X connect 18 0 15 0;
#X connect 18 0 19 0;
#X connect 19 0 20 0;
#X connect 19 0 17 0;
#X connect 19 1 21 0;
#X connect 19 1 14 0;
#X connect 19 2 22 0;
#X connect 24 0 5 0;
#X connect 25 0 38 0;
#X connect 27 0 5 0;
#X connect 28 0 37 0;
#X connect 29 0 26 0;
#X connect 29 0 30 0;
#X connect 30 0 31 0;
#X connect 30 0 28 0;
#X connect 30 1 32 0;
#X connect 30 1 25 0;
#X connect 30 2 33 0;
#X connect 34 0 18 0;
#X connect 35 0 29 0;
#X connect 36 0 8 0;
#X connect 37 0 27 0;
#X connect 38 0 24 0;
