#N canvas 367 91 863 683 10;
#X obj 134 283 fire;
#X obj 215 328 bp~ 1200 0.6;
#X obj 309 333 bp~ 2600 0.4;
#X obj 414 335 hip~ 1000;
#X obj 229 381 *~ 0.2;
#X obj 120 253 t f f f f;
#X obj 339 251 t f f f f;
#X obj 587 159 hsl 128 15 0.1 1.5 0 0 empty empty Crackling -2 -8 0
10 -262144 -1 -1 0 1;
#X obj 553 235 hsl 128 15 0.1 1.5 0 0 empty empty Rumbling -2 -8 0
10 -262144 -1 -1 0 1;
#X obj 130 332 bp~ 600 0.5;
#X obj 232 284 fire;
#X obj 314 293 fire;
#X obj 423 292 fire;
#X obj 194 411 outlet~;
#X obj 256 411 outlet~;
#X obj 153 -5 route;
#X obj 224 -66 print msg;
#X floatatom 36 40 5 0 0 0 - - -;
#X floatatom 129 55 5 0 0 0 - - -;
#X floatatom 189 58 5 0 0 0 - - -;
#X obj 120 22 unpack 0 0 0 0 0;
#X floatatom 243 41 5 0 0 0 - - -;
#X floatatom 298 39 5 0 0 0 - - -;
#X floatatom 33 111 5 0 0 0 - - -;
#X floatatom 135 120 5 0 0 0 - - -;
#X obj 116 88 * 0.005;
#X floatatom 195 118 5 0 0 0 - - -;
#X floatatom 275 123 5 0 0 0 - - -;
#X floatatom 343 120 5 0 0 0 - - -;
#X obj 198 91 * 0.15;
#X obj 268 84 * 0.05;
#X obj 336 81 * 0.05;
#X floatatom 25 169 5 0 0 0 - - -;
#X floatatom 109 191 5 0 0 0 - - -;
#X obj 25 71 * 0.005;
#X floatatom 416 177 5 0 0 0 - - -;
#X obj 129 -54 inlet;
#X obj 156 166 split 0.1 1.5;
#X obj 407 119 split 0.1 1.5;
#X obj 32 146 split 0.1 1.5;
#X obj 337 176 +;
#X obj 174 140 +;
#X obj 362 9 sel 0;
#X msg 557 -48 0;
#X obj 456 61 delay 100;
#X connect 0 0 9 0;
#X connect 1 0 4 0;
#X connect 2 0 4 0;
#X connect 3 0 4 0;
#X connect 4 0 13 0;
#X connect 4 0 14 0;
#X connect 5 0 0 0;
#X connect 5 1 10 0;
#X connect 5 2 11 0;
#X connect 5 3 12 0;
#X connect 6 0 0 1;
#X connect 6 1 10 1;
#X connect 6 2 11 1;
#X connect 6 3 12 1;
#X connect 9 0 4 0;
#X connect 10 0 1 0;
#X connect 11 0 2 0;
#X connect 12 0 3 0;
#X connect 15 0 20 0;
#X connect 17 0 34 0;
#X connect 18 0 25 0;
#X connect 19 0 29 0;
#X connect 20 0 17 0;
#X connect 20 1 18 0;
#X connect 20 2 19 0;
#X connect 20 3 21 0;
#X connect 20 4 22 0;
#X connect 21 0 30 0;
#X connect 22 0 31 0;
#X connect 23 0 39 0;
#X connect 24 0 41 0;
#X connect 25 0 24 0;
#X connect 26 0 41 1;
#X connect 27 0 40 0;
#X connect 28 0 40 1;
#X connect 28 0 42 0;
#X connect 29 0 26 0;
#X connect 30 0 27 0;
#X connect 31 0 28 0;
#X connect 33 0 5 0;
#X connect 34 0 23 0;
#X connect 35 0 6 0;
#X connect 36 0 15 0;
#X connect 37 0 33 0;
#X connect 38 0 35 0;
#X connect 39 0 32 0;
#X connect 40 0 38 0;
#X connect 41 0 37 0;
#X connect 42 0 44 0;
#X connect 43 0 6 0;
#X connect 43 0 5 0;
#X connect 44 0 43 0;
