#N canvas 151 77 1045 647 10;
#X obj 491 564 dac~;
#X obj 324 108 main_fire;
#X obj 136 97 main_water;
#X obj 491 104 main_wind;
#X obj 318 77 netreceive 3002 1;
#X obj 491 72 netreceive 3003 1;
#X obj 78 292 *~;
#X obj 88 79 vsl 15 128 0 1 0 0 empty empty empty 0 -9 0 10 -262144
-1 -1 0 1;
#X obj 119 174 hsl 128 15 0 1 0 0 empty empty empty -2 -6 0 10 -262144
-1 -1 0 1;
#X floatatom 71 353 5 0 0 0 - - -;
#X floatatom 126 345 5 0 0 0 - - -;
#X obj 49 385 *~;
#X obj 112 377 *~;
#X obj 132 233 select 2;
#X msg 121 280 1;
#X obj 151 311 -;
#X obj 278 281 *~;
#X obj 288 68 vsl 15 128 0 1 0 0 empty empty empty 0 -9 0 10 -262144
-1 -1 0 1;
#X obj 319 163 hsl 128 15 0 1 0 0 empty empty empty -2 -6 0 10 -262144
-1 -1 0 1;
#X floatatom 271 342 5 0 0 0 - - -;
#X floatatom 326 334 5 0 0 0 - - -;
#X obj 254 370 *~;
#X obj 312 366 *~;
#X obj 332 222 select 2;
#X msg 321 269 1;
#X obj 351 300 -;
#X obj 456 282 *~;
#X obj 466 69 vsl 15 128 0 1 0 0 empty empty empty 0 -9 0 10 -262144
-1 -1 0 1;
#X obj 500 180 hsl 128 15 0 1 0 0 empty empty empty -2 -6 0 10 -262144
-1 -1 0 1;
#X floatatom 449 343 5 0 0 0 - - -;
#X floatatom 504 335 5 0 0 0 - - -;
#X obj 432 371 *~;
#X obj 490 367 *~;
#X obj 510 223 select 2;
#X msg 499 270 1;
#X obj 529 301 -;
#X obj 660 272 *~;
#X obj 670 59 vsl 15 128 0 1 0 0 empty empty empty 0 -9 0 10 -262144
-1 -1 0 1;
#X obj 704 170 hsl 128 15 0 1 0 0 empty empty empty -2 -6 0 10 -262144
-1 -1 0 1;
#X floatatom 653 333 5 0 0 0 - - -;
#X floatatom 708 325 5 0 0 0 - - -;
#X obj 636 361 *~;
#X obj 694 357 *~;
#X obj 714 213 select 2;
#X msg 703 260 1;
#X obj 733 291 -;
#X obj 714 122 main_insects;
#X obj 133 71 netreceive 3004 1;
#X obj 702 72 netreceive 3001 1;
#X obj 837 69 netreceive 3000 1;
#X msg 412 7 0.5;
#X obj 401 -11 loadbang;
#X text 81 12 mute;
#X msg 84 42 0;
#X connect 1 0 16 0;
#X connect 1 1 16 0;
#X connect 2 0 6 0;
#X connect 2 1 6 0;
#X connect 3 0 26 0;
#X connect 3 1 26 0;
#X connect 4 0 1 0;
#X connect 5 0 3 0;
#X connect 6 0 11 0;
#X connect 6 0 12 0;
#X connect 7 0 6 1;
#X connect 8 0 9 0;
#X connect 8 0 13 0;
#X connect 8 0 15 1;
#X connect 9 0 11 1;
#X connect 10 0 12 1;
#X connect 11 0 0 0;
#X connect 12 0 0 1;
#X connect 13 1 14 0;
#X connect 14 0 15 0;
#X connect 15 0 10 0;
#X connect 16 0 21 0;
#X connect 16 0 22 0;
#X connect 17 0 16 1;
#X connect 18 0 19 0;
#X connect 18 0 23 0;
#X connect 18 0 25 1;
#X connect 19 0 21 1;
#X connect 20 0 22 1;
#X connect 21 0 0 0;
#X connect 22 0 0 1;
#X connect 23 1 24 0;
#X connect 24 0 25 0;
#X connect 25 0 20 0;
#X connect 26 0 31 0;
#X connect 26 0 32 0;
#X connect 27 0 26 1;
#X connect 28 0 29 0;
#X connect 28 0 33 0;
#X connect 28 0 35 1;
#X connect 29 0 31 1;
#X connect 30 0 32 1;
#X connect 31 0 0 0;
#X connect 32 0 0 1;
#X connect 33 1 34 0;
#X connect 34 0 35 0;
#X connect 35 0 30 0;
#X connect 36 0 41 0;
#X connect 36 0 42 0;
#X connect 37 0 36 1;
#X connect 38 0 39 0;
#X connect 38 0 43 0;
#X connect 38 0 45 1;
#X connect 39 0 41 1;
#X connect 40 0 42 1;
#X connect 41 0 0 0;
#X connect 42 0 0 1;
#X connect 43 1 44 0;
#X connect 44 0 45 0;
#X connect 45 0 40 0;
#X connect 46 0 36 0;
#X connect 46 1 36 0;
#X connect 47 0 2 0;
#X connect 48 0 46 0;
#X connect 49 0 46 0;
#X connect 50 0 7 0;
#X connect 50 0 8 0;
#X connect 50 0 17 0;
#X connect 50 0 18 0;
#X connect 50 0 27 0;
#X connect 50 0 28 0;
#X connect 50 0 37 0;
#X connect 50 0 38 0;
#X connect 51 0 50 0;
#X connect 53 0 7 0;
#X connect 53 0 17 0;
#X connect 53 0 27 0;
#X connect 53 0 37 0;
