#N canvas 78 81 720 625 10;
#X obj 41 28 netreceive 3001 1;
#X obj 141 84 route;
#X obj 212 23 print msg;
#X floatatom 24 129 5 0 0 0 - - -;
#X floatatom 117 144 5 0 0 0 - - -;
#X floatatom 177 147 5 0 0 0 - - -;
#X obj 108 111 unpack 0 0 0 0 0;
#X floatatom 231 130 5 0 0 0 - - -;
#X floatatom 286 128 5 0 0 0 - - -;
#X floatatom 21 200 5 0 0 0 - - -;
#X floatatom 123 209 5 0 0 0 - - -;
#X obj 104 177 * 0.005;
#X floatatom 183 207 5 0 0 0 - - -;
#X floatatom 263 212 5 0 0 0 - - -;
#X floatatom 331 209 5 0 0 0 - - -;
#X obj 186 180 * 0.15;
#X obj 256 173 * 0.05;
#X obj 324 170 * 0.05;
#X obj 20 235 split 0.001 0.9;
#X floatatom 13 258 5 0 0 0 - - -;
#X obj 148 249 split 0.001 0.9;
#X floatatom 144 277 5 0 0 0 - - -;
#X obj 13 160 * 0.005;
#X obj 395 208 split 0.001 0.9;
#X floatatom 384 247 5 0 0 0 - - -;
#X msg 34 328 0.0001;
#X obj 18 293 s phone;
#X obj 512 326 hsl 128 15 0.0001 0.9 0 0 empty empty empty -2 -8 0
10 -262144 -1 -1 12300 1;
#X obj 534 363 s test;
#X obj 264 416 water;
#X obj 401 524 catch~ stream_left;
#X obj 523 524 catch~ stream_right;
#X obj 401 551 dac~;
#X obj 27 359 water;
#X obj 72 361 water;
#X obj 111 356 water;
#X obj 156 358 water;
#X obj 32 386 water;
#X obj 77 388 water;
#X obj 128 384 water;
#X obj 173 386 water;
#X obj 120 414 water;
#X obj 168 416 water;
#X obj 34 418 water;
#X obj 79 420 water;
#X obj 212 355 water;
#X obj 257 357 water;
#X obj 296 352 water;
#X obj 341 354 water;
#X obj 217 382 water;
#X obj 262 384 water;
#X obj 313 380 water;
#X obj 358 382 water;
#X obj 305 410 water;
#X obj 353 412 water;
#X obj 219 414 water;
#X obj 129 306 s phone2;
#X obj 385 285 s phone3;
#X obj 260 506 water;
#X obj 23 449 water;
#X obj 68 451 water;
#X obj 107 446 water;
#X obj 152 448 water;
#X obj 28 476 water;
#X obj 73 478 water;
#X obj 124 474 water;
#X obj 169 476 water;
#X obj 116 504 water;
#X obj 164 506 water;
#X obj 30 508 water;
#X obj 75 510 water;
#X obj 208 445 water;
#X obj 253 447 water;
#X obj 292 442 water;
#X obj 337 444 water;
#X obj 213 472 water;
#X obj 258 474 water;
#X obj 309 470 water;
#X obj 354 472 water;
#X obj 301 500 water;
#X obj 349 502 water;
#X obj 215 504 water;
#X connect 0 0 1 0;
#X connect 1 0 2 0;
#X connect 1 0 6 0;
#X connect 3 0 22 0;
#X connect 4 0 11 0;
#X connect 5 0 15 0;
#X connect 6 0 3 0;
#X connect 6 1 4 0;
#X connect 6 2 5 0;
#X connect 6 3 7 0;
#X connect 6 4 8 0;
#X connect 7 0 16 0;
#X connect 8 0 17 0;
#X connect 9 0 18 0;
#X connect 10 0 20 0;
#X connect 11 0 10 0;
#X connect 14 0 23 0;
#X connect 15 0 12 0;
#X connect 16 0 13 0;
#X connect 17 0 14 0;
#X connect 18 0 19 0;
#X connect 19 0 26 0;
#X connect 20 0 21 0;
#X connect 21 0 56 0;
#X connect 22 0 9 0;
#X connect 23 0 24 0;
#X connect 24 0 57 0;
#X connect 27 0 28 0;
#X connect 30 0 32 0;
#X connect 31 0 32 1;
