#N canvas 166 152 720 625 10;
#X obj 141 84 route;
#X obj 212 23 print msg;
#X floatatom 24 129 5 0 0 0 - - -;
#X floatatom 117 144 5 0 0 0 - - -;
#X floatatom 177 147 5 0 0 0 - - -;
#X obj 108 111 unpack 0 0 0 0 0;
#X floatatom 231 130 5 0 0 0 - - -;
#X floatatom 286 128 5 0 0 0 - - -;
#X floatatom 21 200 5 0 0 0 - - -;
#X floatatom 123 209 5 0 0 0 - - -;
#X obj 104 177 * 0.005;
#X floatatom 183 207 5 0 0 0 - - -;
#X floatatom 263 212 5 0 0 0 - - -;
#X floatatom 331 209 5 0 0 0 - - -;
#X obj 186 180 * 0.15;
#X obj 256 173 * 0.05;
#X obj 324 170 * 0.05;
#X obj 20 235 split 0.001 0.9;
#X floatatom 13 258 5 0 0 0 - - -;
#X obj 159 275 split 0.001 0.9;
#X floatatom 196 305 5 0 0 0 - - -;
#X obj 13 160 * 0.005;
#X obj 407 268 split 0.001 0.9;
#X floatatom 396 307 5 0 0 0 - - -;
#X msg 34 328 0.0001;
#X obj 18 293 s phone;
#X obj 512 326 hsl 128 15 0.0001 0.9 0 0 empty empty empty -2 -8 0
10 -262144 -1 -1 0 1;
#X obj 534 363 s test;
#X obj 264 416 water;
#X obj 401 524 catch~ stream_left;
#X obj 523 524 catch~ stream_right;
#X obj 27 359 water;
#X obj 72 361 water;
#X obj 111 356 water;
#X obj 156 358 water;
#X obj 32 386 water;
#X obj 77 388 water;
#X obj 128 384 water;
#X obj 173 386 water;
#X obj 120 414 water;
#X obj 168 416 water;
#X obj 34 418 water;
#X obj 79 420 water;
#X obj 212 355 water;
#X obj 257 357 water;
#X obj 296 352 water;
#X obj 341 354 water;
#X obj 217 382 water;
#X obj 262 384 water;
#X obj 219 414 water;
#X obj 181 334 s phone2;
#X obj 397 345 s phone3;
#X obj 260 506 water;
#X obj 23 449 water;
#X obj 68 451 water;
#X obj 107 446 water;
#X obj 152 448 water;
#X obj 28 476 water;
#X obj 73 478 water;
#X obj 124 474 water;
#X obj 169 476 water;
#X obj 116 504 water;
#X obj 164 506 water;
#X obj 30 508 water;
#X obj 75 510 water;
#X obj 208 445 water;
#X obj 253 447 water;
#X obj 292 442 water;
#X obj 213 472 water;
#X obj 258 474 water;
#X obj 309 470 water;
#X obj 354 472 water;
#X obj 301 500 water;
#X obj 349 502 water;
#X obj 215 504 water;
#X obj 274 426 water;
#X obj 37 369 water;
#X obj 82 371 water;
#X obj 121 366 water;
#X obj 166 368 water;
#X obj 42 396 water;
#X obj 87 398 water;
#X obj 138 394 water;
#X obj 183 396 water;
#X obj 130 424 water;
#X obj 178 426 water;
#X obj 44 428 water;
#X obj 89 430 water;
#X obj 222 365 water;
#X obj 267 367 water;
#X obj 306 362 water;
#X obj 351 364 water;
#X obj 227 392 water;
#X obj 272 394 water;
#X obj 229 424 water;
#X obj 270 516 water;
#X obj 33 459 water;
#X obj 78 461 water;
#X obj 117 456 water;
#X obj 162 458 water;
#X obj 38 486 water;
#X obj 83 488 water;
#X obj 134 484 water;
#X obj 179 486 water;
#X obj 126 514 water;
#X obj 174 516 water;
#X obj 40 518 water;
#X obj 85 520 water;
#X obj 218 455 water;
#X obj 263 457 water;
#X obj 302 452 water;
#X obj 347 454 water;
#X obj 223 482 water;
#X obj 268 484 water;
#X obj 319 480 water;
#X obj 364 482 water;
#X obj 311 510 water;
#X obj 359 512 water;
#X obj 225 514 water;
#X obj 284 436 water;
#X obj 47 379 water;
#X obj 92 381 water;
#X obj 131 376 water;
#X obj 176 378 water;
#X obj 52 406 water;
#X obj 97 408 water;
#X obj 148 404 water;
#X obj 193 406 water;
#X obj 140 434 water;
#X obj 188 436 water;
#X obj 54 438 water;
#X obj 99 440 water;
#X obj 232 375 water;
#X obj 277 377 water;
#X obj 237 402 water;
#X obj 282 404 water;
#X obj 239 434 water;
#X obj 280 526 water;
#X obj 43 469 water;
#X obj 88 471 water;
#X obj 127 466 water;
#X obj 172 468 water;
#X obj 48 496 water;
#X obj 93 498 water;
#X obj 144 494 water;
#X obj 189 496 water;
#X obj 136 524 water;
#X obj 184 526 water;
#X obj 50 528 water;
#X obj 95 530 water;
#X obj 228 465 water;
#X obj 273 467 water;
#X obj 312 462 water;
#X obj 357 464 water;
#X obj 233 492 water;
#X obj 278 494 water;
#X obj 329 490 water;
#X obj 374 492 water;
#X obj 321 520 water;
#X obj 369 522 water;
#X obj 235 524 water;
#X obj 117 35 inlet;
#X obj 414 579 outlet~;
#X obj 500 584 outlet~;
#X obj 421 80 sel 0;
#X obj 515 132 delay 100;
#X msg 616 23 0.9;
#X obj 310 269 +;
#X obj 190 234 +;
#X connect 0 0 5 0;
#X connect 2 0 21 0;
#X connect 3 0 10 0;
#X connect 4 0 14 0;
#X connect 5 0 2 0;
#X connect 5 1 3 0;
#X connect 5 2 4 0;
#X connect 5 3 6 0;
#X connect 5 4 7 0;
#X connect 6 0 15 0;
#X connect 7 0 16 0;
#X connect 7 0 164 0;
#X connect 8 0 17 0;
#X connect 9 0 168 0;
#X connect 10 0 9 0;
#X connect 11 0 168 1;
#X connect 12 0 167 0;
#X connect 13 0 167 1;
#X connect 14 0 11 0;
#X connect 15 0 12 0;
#X connect 16 0 13 0;
#X connect 17 0 18 0;
#X connect 18 0 25 0;
#X connect 19 0 20 0;
#X connect 20 0 50 0;
#X connect 21 0 8 0;
#X connect 22 0 23 0;
#X connect 23 0 51 0;
#X connect 29 0 162 0;
#X connect 30 0 163 0;
#X connect 161 0 0 0;
#X connect 164 0 165 0;
#X connect 165 0 166 0;
#X connect 166 0 51 0;
#X connect 166 0 50 0;
#X connect 166 0 25 0;
#X connect 167 0 22 0;
#X connect 168 0 19 0;
