#N canvas 758 215 450 418 10;
#X obj 5 104 fire;
#X obj 92 146 bp~ 1200 0.6;
#X obj 186 151 bp~ 2600 0.4;
#X obj 291 153 hip~ 1000;
#X obj 106 199 *~ 0.2;
#X obj 116 238 dac~;
#X obj 13 38 t f f f f;
#X obj 126 41 t f f f f;
#X obj 63 2 hsl 128 15 0.1 1.5 0 0 empty empty Crackling -2 -8 0 10
-262144 -1 -1 4500 1;
#X obj 244 5 hsl 128 15 0.1 1.5 0 0 empty empty Rumbling -2 -8 0 10
-262144 -1 -1 12200 1;
#X obj 7 150 bp~ 600 0.5;
#X obj 103 105 fire;
#X obj 185 114 fire;
#X obj 294 113 fire;
#X connect 0 0 10 0;
#X connect 1 0 4 0;
#X connect 2 0 4 0;
#X connect 3 0 4 0;
#X connect 4 0 5 0;
#X connect 4 0 5 1;
#X connect 6 0 0 0;
#X connect 6 1 11 0;
#X connect 6 2 12 0;
#X connect 6 3 13 0;
#X connect 7 0 0 1;
#X connect 7 1 11 1;
#X connect 7 2 12 1;
#X connect 7 3 13 1;
#X connect 8 0 6 0;
#X connect 9 0 7 0;
#X connect 10 0 4 0;
#X connect 11 0 1 0;
#X connect 12 0 2 0;
#X connect 13 0 3 0;
