#N canvas 57 73 1045 647 10;
#X obj 53 551 dac~;
#X obj 246 52 main_fire;
#X obj 26 42 main_water;
#X obj 413 48 main_wind;
#X obj 240 21 netreceive 3002 1;
#X obj 413 16 netreceive 3003 1;
#X obj -32 237 *~;
#X obj -22 24 vsl 15 128 0 1 0 0 empty empty empty 0 -9 0 10 -262144
-1 -1 10400 1;
#X obj 9 119 hsl 128 15 0 1 0 0 empty empty empty -2 -6 0 10 -262144
-1 -1 0 1;
#X floatatom -39 298 5 0 0 0 - - -;
#X floatatom 16 290 5 0 0 0 - - -;
#X obj -56 326 *~;
#X obj 2 322 *~;
#X obj 22 178 select 2;
#X msg 11 225 1;
#X obj 41 256 -;
#X obj 200 225 *~;
#X obj 210 12 vsl 15 128 0 1 0 0 empty empty empty 0 -9 0 10 -262144
-1 -1 3000 1;
#X obj 241 107 hsl 128 15 0 1 0 0 empty empty empty -2 -6 0 10 -262144
-1 -1 12700 1;
#X floatatom 193 286 5 0 0 0 - - -;
#X floatatom 248 278 5 0 0 0 - - -;
#X obj 176 314 *~;
#X obj 234 310 *~;
#X obj 254 166 select 2;
#X msg 243 213 1;
#X obj 273 244 -;
#X obj 378 226 *~;
#X obj 388 13 vsl 15 128 0 1 0 0 empty empty empty 0 -9 0 10 -262144
-1 -1 1300 1;
#X obj 422 124 hsl 128 15 0 1 0 0 empty empty empty -2 -6 0 10 -262144
-1 -1 2700 1;
#X floatatom 371 287 5 0 0 0 - - -;
#X floatatom 426 279 5 0 0 0 - - -;
#X obj 354 315 *~;
#X obj 412 311 *~;
#X obj 432 167 select 2;
#X msg 421 214 1;
#X obj 451 245 -;
#X obj 582 216 *~;
#X obj 592 3 vsl 15 128 0 1 0 0 empty empty empty 0 -9 0 10 -262144
-1 -1 5300 1;
#X obj 626 114 hsl 128 15 0 1 0 0 empty empty empty -2 -6 0 10 -262144
-1 -1 9600 1;
#X floatatom 575 277 5 0 0 0 - - -;
#X floatatom 630 269 5 0 0 0 - - -;
#X obj 558 305 *~;
#X obj 616 301 *~;
#X obj 636 157 select 2;
#X msg 625 204 1;
#X obj 655 235 -;
#X obj 636 66 main_insects;
#X obj 23 16 netreceive 3004 1;
#X obj 624 16 netreceive 3001 1;
#X obj 759 13 netreceive 3000 1;
#X connect 1 0 16 0;
#X connect 1 1 16 0;
#X connect 2 0 6 0;
#X connect 2 1 6 0;
#X connect 3 0 26 0;
#X connect 3 1 26 0;
#X connect 4 0 1 0;
#X connect 5 0 3 0;
#X connect 6 0 11 0;
#X connect 6 0 12 0;
#X connect 7 0 6 1;
#X connect 8 0 9 0;
#X connect 8 0 13 0;
#X connect 8 0 15 1;
#X connect 9 0 11 1;
#X connect 10 0 12 1;
#X connect 11 0 0 0;
#X connect 12 0 0 1;
#X connect 13 1 14 0;
#X connect 14 0 15 0;
#X connect 15 0 10 0;
#X connect 16 0 21 0;
#X connect 16 0 22 0;
#X connect 17 0 16 1;
#X connect 18 0 19 0;
#X connect 18 0 23 0;
#X connect 18 0 25 1;
#X connect 19 0 21 1;
#X connect 20 0 22 1;
#X connect 21 0 0 0;
#X connect 22 0 0 1;
#X connect 23 1 24 0;
#X connect 24 0 25 0;
#X connect 25 0 20 0;
#X connect 26 0 31 0;
#X connect 26 0 32 0;
#X connect 27 0 26 1;
#X connect 28 0 29 0;
#X connect 28 0 33 0;
#X connect 28 0 35 1;
#X connect 29 0 31 1;
#X connect 30 0 32 1;
#X connect 31 0 0 0;
#X connect 32 0 0 1;
#X connect 33 1 34 0;
#X connect 34 0 35 0;
#X connect 35 0 30 0;
#X connect 36 0 41 0;
#X connect 36 0 42 0;
#X connect 37 0 36 1;
#X connect 38 0 39 0;
#X connect 38 0 43 0;
#X connect 38 0 45 1;
#X connect 39 0 41 1;
#X connect 40 0 42 1;
#X connect 41 0 0 0;
#X connect 42 0 0 1;
#X connect 43 1 44 0;
#X connect 44 0 45 0;
#X connect 45 0 40 0;
#X connect 46 0 36 0;
#X connect 46 1 36 0;
#X connect 47 0 2 0;
#X connect 48 0 46 0;
#X connect 49 0 46 0;
