#N canvas 0 28 1366 660 10;
#X floatatom 231 287 5 0 0 0 - - -, f 5;
#X floatatom 89 313 5 0 0 0 - - -, f 5;
#X obj 197 35 inlet;
#X obj 437 562 outlet~;
#X obj 465 393 vcf~;
#X floatatom 622 397 5 0 0 0 - - -, f 5;
#X obj 557 259 vsl 15 128 0 20 0 0 empty empty empty 0 -9 0 10 -262144
-1 -1 3366 1;
#X obj 536 80 +~ 1;
#X obj 537 101 *~ 0.5;
#X obj 536 59 osc~ 2;
#X obj 638 136 hsl 128 15 700 6000 0 0 empty empty empty -2 -8 0 10
-262144 -1 -1 12700 1;
#X obj 621 202 hsl 128 15 0 700 0 0 empty empty empty -2 -8 0 10 -262144
-1 -1 0 1;
#X floatatom 592 239 6 0 0 0 - - -, f 6;
#X floatatom 590 170 6 0 0 0 - - -, f 6;
#X obj 590 151 -;
#X obj 590 129 bang;
#X obj 490 235 +~ 200;
#X obj 489 153 *~ 1500;
#X obj 541 30 hsl 128 15 0.5 4 0 0 empty empty empty -2 -8 0 10 -262144
-1 -1 12700 1;
#X obj 633 260 loadbang;
#X msg 639 298 5.3;
#X floatatom 428 12 5 0 0 0 - - -, f 5;
#X obj 472 119 clip~ -0.5 0.5;
#X obj 471 97 *~ 50;
#X obj 519 562 outlet~;
#X floatatom 918 149 5 0 0 0 - - -, f 5;
#X floatatom 897 63 5 0 0 0 - - -, f 5;
#X floatatom 360 37 5 0 0 0 - - -, f 5;
#X obj 204 188 unpack 0 0 0 0 0;
#X obj 294 130 route;
#X obj 693 61 * 0.5;
#X obj 922 191 + 2;
#X obj 918 256 * -100;
#X obj 886 103 * 100;
#X obj 262 350 * -2;
#X obj 271 439 osc~;
#X obj 735 461 line~;
#X msg 772 376 1 1000;
#X obj 568 469 *~;
#X obj 476 471 *~;
#X obj 575 516 *~ 0.1;
#X obj 460 518 *~ 0.1;
#X msg 790 406 0 1000;
#X obj 911 413 loadbang;
#X obj 69 405 sel 0, f 6;
#X obj 46 92 r ins1;
#X obj 364 343 / 0.5;
#X obj 358 446 osc~;
#X connect 0 0 34 0;
#X connect 1 0 44 0;
#X connect 2 0 29 0;
#X connect 4 0 39 0;
#X connect 4 0 38 0;
#X connect 6 0 5 0;
#X connect 6 0 4 2;
#X connect 7 0 8 0;
#X connect 8 0 17 0;
#X connect 9 0 7 0;
#X connect 10 0 14 0;
#X connect 11 0 12 0;
#X connect 11 0 14 1;
#X connect 11 0 15 0;
#X connect 11 0 16 1;
#X connect 14 0 13 0;
#X connect 14 0 17 1;
#X connect 15 0 14 0;
#X connect 16 0 4 1;
#X connect 17 0 16 0;
#X connect 18 0 9 0;
#X connect 18 0 21 0;
#X connect 19 0 20 0;
#X connect 20 0 6 0;
#X connect 22 0 4 0;
#X connect 23 0 22 0;
#X connect 25 0 31 0;
#X connect 26 0 33 0;
#X connect 27 0 30 0;
#X connect 28 0 1 0;
#X connect 28 1 0 0;
#X connect 28 2 25 0;
#X connect 28 3 27 0;
#X connect 28 4 26 0;
#X connect 29 0 28 0;
#X connect 30 0 18 0;
#X connect 31 0 32 0;
#X connect 32 0 11 0;
#X connect 33 0 10 0;
#X connect 34 0 35 0;
#X connect 35 0 23 0;
#X connect 36 0 38 1;
#X connect 36 0 39 1;
#X connect 37 0 36 0;
#X connect 38 0 40 0;
#X connect 39 0 41 0;
#X connect 40 0 24 0;
#X connect 41 0 3 0;
#X connect 42 0 36 0;
#X connect 43 0 37 0;
#X connect 44 0 42 0;
#X connect 44 1 37 0;
#X connect 44 1 46 0;
#X connect 45 0 28 0;
#X connect 46 0 47 0;
#X connect 47 0 23 0;
